<svg id="Layer_1" enable-background="new 0 0 511.958 511.958" height="512" viewBox="0 0 511.958 511.958" width="512" xmlns="http://www.w3.org/2000/svg"><g><path d="m222.417 218.749c2.882 4.385 7.667 6.764 12.55 6.764 2.826 0 5.685-.798 8.224-2.466l9.262-6.087 9.262 6.087c2.539 1.668 5.397 2.466 8.224 2.466 4.882 0 9.668-2.379 12.55-6.764 4.229-6.435 2.857-14.919-2.916-19.738 5.773-4.819 7.145-13.302 2.916-19.738-4.55-6.923-13.849-8.848-20.773-4.298l-9.262 6.087-9.262-6.087c-6.926-4.552-16.225-2.625-20.773 4.298-4.229 6.435-2.857 14.919 2.916 19.738-5.775 4.818-7.146 13.302-2.918 19.738z"/><path d="m126.462 392.143-11.064.64-4.978-9.902c-3.721-7.402-12.739-10.385-20.139-6.665-6.88 3.459-9.934 11.492-7.344 18.551-7.409 1.286-12.838 7.948-12.394 15.635.461 7.976 7.074 14.134 14.961 14.134.292 0 .585-.008.88-.025l11.065-.64 4.978 9.902c2.635 5.24 7.923 8.266 13.414 8.266 2.265 0 4.564-.515 6.726-1.602 6.88-3.459 9.934-11.492 7.344-18.551 7.409-1.286 12.838-7.948 12.394-15.635-.479-8.269-7.566-14.58-15.843-14.108z"/><path d="m455.505 254.982c40.704-43.107 60.932-101.308 55.617-160.645-.647-7.228-6.375-12.955-13.602-13.602-39.107-3.503-78.77 4.325-113.439 22.146-18.336-53.133-68.844-91.407-128.128-91.407-74.715 0-135.5 60.785-135.5 135.5 0 31.351 10.707 60.247 28.65 83.231-51.392-5.12-103.521 19.501-130.977 67.057-37.356 64.704-15.107 147.738 49.598 185.095 21.287 12.29 44.547 18.127 67.522 18.127 46.862 0 92.506-24.305 117.574-67.723 1.097-1.901 2.138-3.818 3.133-5.749.995 1.93 2.036 3.848 3.133 5.749 25.07 43.422 70.707 67.723 117.574 67.723 22.971 0 46.239-5.839 67.522-18.127 64.705-37.357 86.954-120.392 49.597-185.097-9.931-17.2-23.09-31.4-38.274-42.278zm26.426-145.045c.815 47.897-17.687 94.006-51.812 128.131-.612.611-1.241 1.208-1.863 1.812-20.56-8.488-43.075-11.905-65.453-9.676 17.944-22.984 28.65-51.88 28.65-83.232 0-4.589-.232-9.124-.68-13.596 27.523-15.799 59.273-23.934 91.158-23.439zm-225.977-68.464c58.173 0 105.5 47.327 105.5 105.5s-47.327 105.5-105.5 105.5-105.5-47.327-105.5-105.5 47.327-105.5 105.5-105.5zm13.551 240.324c-5.201 6.7-9.731 13.835-13.552 21.3-3.821-7.465-8.351-14.599-13.552-21.3 4.458.445 8.979.676 13.552.676 4.574 0 9.094-.231 13.552-.676zm-42.666 135.964c-29.086 50.378-93.737 67.703-144.116 38.616-50.379-29.087-67.702-93.737-38.616-144.116 19.52-33.809 55.053-52.729 91.543-52.729 17.885 0 36.002 4.547 52.573 14.114 50.38 29.086 67.703 93.736 38.616 144.115zm202.344 38.616c-16.574 9.569-34.684 14.115-52.572 14.113-36.487-.002-72.025-18.924-91.543-52.729-29.086-50.379-11.764-115.03 38.616-144.116 50.378-29.086 115.03-11.764 144.116 38.616 29.085 50.379 11.762 115.029-38.617 144.116z"/><path d="m428.969 394.767c2.59-7.059-.464-15.092-7.344-18.551-7.4-3.72-16.418-.736-20.139 6.665l-4.978 9.902-11.064-.64c-8.27-.474-15.362 5.839-15.841 14.109-.444 7.687 4.985 14.349 12.394 15.635-2.591 7.059.464 15.092 7.344 18.551 2.162 1.086 4.46 1.602 6.726 1.602 5.49 0 10.779-3.026 13.414-8.266l4.978-9.902 11.065.64c.295.017.588.025.88.025 7.887 0 14.5-6.159 14.961-14.134.443-7.688-4.987-14.35-12.396-15.636z"/></g></svg>