<svg id="Layer_1" enable-background="new 0 0 511.953 511.953" height="512" viewBox="0 0 511.953 511.953" width="512" xmlns="http://www.w3.org/2000/svg"><g><g><path d="m339.535 275.363c-5.165 0-10.352-.23-15.552-.696-6.022-.539-10.795-5.312-11.334-11.335-4.577-51.109 13.583-101.207 49.824-137.449s86.339-54.405 137.449-49.825c6.023.539 10.795 5.312 11.335 11.335 4.577 51.109-13.583 101.208-49.824 137.449-32.555 32.555-76.293 50.521-121.898 50.521z" fill="#00cb75"/></g><g><g><path d="m255.738 273.21c-21.703 0-43.676-5.514-63.784-17.124-61.123-35.29-82.141-113.727-46.851-174.851 35.288-61.123 113.727-82.14 174.85-46.85 61.123 35.289 82.14 113.727 46.851 174.851-23.68 41.014-66.798 63.974-111.066 63.974z" fill="#00429d"/></g></g><path d="m319.953 34.385c-20.172-11.646-42.229-17.156-63.999-17.12v255.942c44.192-.075 87.208-23.023 110.849-63.971 35.29-61.124 14.273-139.561-46.85-174.851z" fill="#00347b"/><path d="m283.073 193.219c5.773-4.819 7.145-13.302 2.916-19.738-4.55-6.923-13.849-8.848-20.773-4.298l-9.262 6.087-9.262-6.087c-6.926-4.552-16.225-2.625-20.773 4.298-4.229 6.435-2.857 14.919 2.916 19.738-5.773 4.819-7.145 13.302-2.916 19.738 2.882 4.385 7.667 6.764 12.55 6.764 2.826 0 5.685-.798 8.224-2.466l9.262-6.087 9.262 6.087c2.539 1.668 5.397 2.466 8.224 2.466 4.882 0 9.668-2.379 12.55-6.764 4.226-6.436 2.855-14.92-2.918-19.738z" fill="#00347b"/><g><g><path d="m127.759 494.692c-21.703 0-43.676-5.514-63.784-17.124-61.124-35.289-82.141-113.726-46.851-174.85 35.289-61.124 113.727-82.141 174.851-46.851 61.123 35.289 82.14 113.727 46.851 174.851-23.681 41.015-66.799 63.974-111.067 63.974z" fill="#00429d"/></g></g><path d="m135.255 405.628c-.479-8.27-7.559-14.569-15.841-14.109l-9.907.573-4.457-8.867c-3.722-7.401-12.739-10.385-20.139-6.665-6.588 3.312-9.662 10.817-7.638 17.646-6.926 1.662-11.889 8.077-11.463 15.438.461 7.976 7.073 14.134 14.961 14.134.292 0 .585-.008.88-.025l9.907-.573 4.457 8.867c2.635 5.24 7.923 8.266 13.414 8.266 2.265 0 4.564-.515 6.726-1.602 6.588-3.312 9.662-10.817 7.638-17.646 6.926-1.661 11.888-8.076 11.462-15.437z" fill="#00347b"/><g><g><path d="m384.194 494.692c-44.273 0-87.384-22.956-111.066-63.974-35.289-61.123-14.272-139.561 46.851-174.851 61.123-35.289 139.561-14.273 174.851 46.851 35.289 61.123 14.272 139.561-46.851 174.851-20.105 11.607-42.086 17.123-63.785 17.123z" fill="#00347b"/></g></g><g fill="#001737"><path d="m434.681 394.207c2.024-6.83-1.05-14.334-7.638-17.646-7.401-3.72-16.418-.736-20.139 6.665l-4.457 8.867-9.907-.573c-8.266-.472-15.363 5.839-15.841 14.109-.425 7.361 4.537 13.776 11.463 15.438-2.024 6.829 1.05 14.335 7.638 17.646 2.162 1.086 4.46 1.602 6.726 1.602 5.49 0 10.779-3.026 13.414-8.266l4.457-8.867 9.907.573c.295.017.588.025.88.025 7.887 0 14.5-6.159 14.961-14.134.425-7.362-4.538-13.777-11.464-15.439z"/><path d="m283.073 193.219c5.773-4.819 7.145-13.302 2.916-19.738-4.55-6.923-13.849-8.848-20.773-4.298l-9.261 6.086v35.9l9.261 6.086c2.539 1.668 5.397 2.466 8.224 2.466 4.882 0 9.668-2.379 12.55-6.764 4.227-6.436 2.856-14.92-2.917-19.738z"/></g></g></svg>