<svg id="Capa_1" enable-background="new 0 0 512.004 512.004" height="512" viewBox="0 0 512.004 512.004" width="512" xmlns="http://www.w3.org/2000/svg"><g><path d="m447.1 462.562c-6.427-26.424-30.331-45.562-58.229-45.562h-58.363l-18.208-50.084c29.228-18.268 48.674-49.941 50.072-86.274l.3-7.794c156.112-44.869 141.149-168.175-29.953-200.799l-3.092-31.528c-2.306-23.101-21.556-40.521-44.776-40.521h-57.699c-23.221 0-42.471 17.42-44.779 40.546l-3.095 31.561c-36.639 7.049-79.246 21.218-107.724 45.532-55.445 47.337-38.695 121.733 77.778 155.208.098 2.547.197 5.13.3 7.794 1.379 35.834 20.403 67.732 50.078 86.273l-18.215 50.086h-58.364c-27.873 0-51.796 19.115-58.229 45.562l-7.48 30.91c-1.948 8.052 2.999 16.159 11.051 18.107 8.05 1.95 16.16-2.999 18.107-11.051l7.467-30.853c3.363-13.354 15.314-22.675 29.084-22.675h13.87v50c0 8.284 6.716 15 15 15s15-6.716 15-15v-50h19.446c40.129 31.944 98.893 32.013 139.109 0h19.446v50c0 8.284 6.716 15 15 15s15-6.716 15-15v-50h13.87c13.77 0 25.721 9.321 29.084 22.676l7.467 30.853c1.949 8.052 10.056 13.001 18.107 11.051 8.052-1.948 12.999-10.056 11.051-18.107zm-234.873-419.062c.769-7.696 7.185-13.5 14.925-13.5h57.699c7.74 0 14.156 5.804 14.922 13.474l2.353 23.992c-30.638-3.39-61.858-3.364-92.252.034zm-121.195 96.954c20.273-17.31 53.5-31.098 93.56-38.824 42.038-8.109 88.902-8.81 131.955-1.977 36.974 5.878 69.846 17.293 92.562 32.144 62.325 40.742 25.552 86.161-45.215 109.304l3.097-80.525c.272-7.093-4.465-13.406-11.352-15.128-65.124-16.281-133.961-16.297-199.093-.046-7.48 1.772-12.317 8.86-11.448 16.316.97 22.207-1.874-48.478 3.016 79.384-60.101-19.653-104.796-59.913-57.082-100.648zm88.577 139.035c-1.363-35.447-2.776-72.368-4.103-107.7 52.919-11.426 108.111-11.424 161.03.009-.465 12.091-3.659 95.114-4.143 107.691-2.1 54.609-58.334 88.431-107.143 67.107-.874-.461-1.419-.684-1.979-.882-25.001-11.784-42.528-36.712-43.662-66.225zm30.172 147.508 17.432-47.939c18.782 5.256 38.794 5.257 57.58.001l17.428 47.938c-27.631 18.66-64.774 18.681-92.44 0z"/></g></svg>